<svg xmlns="http://www.w3.org/2000/svg" xmlns:xlink="http://www.w3.org/1999/xlink" width="48" height="48" viewBox="0 0 48 48">
  <defs>
    <polygon id="youtubeinverted-a" points=".009 .006 25 .006 25 17.856 .009 17.856"/>
  </defs>
  <g fill="none" fill-rule="evenodd">
    <circle cx="24" cy="24" r="23.5" stroke="#FFF"/>
    <g transform="translate(11.5 15.5)">
      <mask id="youtubeinverted-b" fill="#fff">
        <use xlink:href="#youtubeinverted-a"/>
      </mask>
      <path fill="#FFF" d="M24.4775568,2.788272 C25,4.777488 25,8.928 25,8.928 C25,8.928 25,13.078368 24.4775568,15.067872 C24.1900568,16.165296 23.3430398,17.029584 22.2673295,17.323056 C20.3177557,17.856 12.5,17.856 12.5,17.856 C12.5,17.856 4.68224432,17.856 2.73267045,17.323056 C1.65710227,17.029584 0.809943182,16.165296 0.522443182,15.067872 C0,13.078368 0,8.928 0,8.928 C0,8.928 0,4.777488 0.522443182,2.788272 C0.809943182,1.690704 1.65710227,0.826416 2.73267045,0.533088 C4.68224432,1.10134124e-13 12.5,1.10134124e-13 12.5,1.10134124e-13 C12.5,1.10134124e-13 20.3177557,1.10134124e-13 22.2673295,0.533088 C23.3430398,0.826416 24.1900568,1.690704 24.4775568,2.788272 Z M10,12 L17,8.50013375 L10,5 L10,12 Z" mask="url(#youtubeinverted-b)"/>
    </g>
  </g>
</svg>
