<svg xmlns="http://www.w3.org/2000/svg" width="154" height="30" viewBox="0 0 154 30"><defs><linearGradient id="slockit_logo-a" x1="0%" y1="19.446%" y2="91.183%"><stop offset="0%" stop-color="#FFF"/><stop offset="100%" stop-color="#FFF"/></linearGradient></defs><g fill="none" fill-rule="evenodd"><path fill="url(#slockit_logo-a)" fill-rule="nonzero" d="M17.333 12.857V0H39v12.857H17.333zM0 30V17.143h21.666V30H0zm0-17.143V8.572C0 3.838 3.88 0 8.667 0H13v12.857H0zM26 30V17.143h13v4.286C39 26.163 35.12 30 30.333 30H26z"/><path fill="#FFF" d="M67.398 20.608c0-.806-.676-1.118-2.158-1.612l-1.976-.65c-1.664-.546-3.198-1.82-3.198-4.16 0-2.626 2.21-4.342 5.824-4.342 1.56 0 3.458.13 5.252.65l-1.534 3.822h-.364l-2.132-2.964c-.104-.156-.208-.234-.338-.26-.182-.026-.39-.026-.676-.026-1.118 0-1.976.468-1.976 1.378 0 .936.91 1.43 2.028 1.82l2.132.702c1.716.546 3.276 1.638 3.276 3.64 0 3.12-2.704 4.706-6.682 4.706-1.794 0-3.744-.312-5.2-.858l1.508-3.9h.364l2.21 3.198a.57.57 0 0 0 .364.26c.26.052.598.078.988.078 1.222 0 2.288-.442 2.288-1.482zM80.424 23h-7.566v-.364l1.092-1.222c.182-.182.182-.26.182-.546V7.594c0-.312 0-.39-.182-.598l-1.092-1.248v-.364L79.15 4.5v16.368c0 .286 0 .364.182.546l1.092 1.222V23zm8.658.312c-4.784 0-7.358-2.418-7.358-6.656 0-4.29 2.652-6.812 7.462-6.812 4.758 0 7.306 2.47 7.306 6.656 0 4.264-2.652 6.812-7.41 6.812zm.052-1.404c1.17 0 1.846-1.378 1.846-5.252 0-4.004-.728-5.408-1.898-5.408-1.144 0-1.846 1.326-1.846 5.252 0 4.004.728 5.408 1.898 5.408zm14.066-6.656c0 3.692 1.794 4.914 3.666 4.914 1.118 0 2.21-.416 2.912-1.326l.364.182c-.806 2.704-2.704 4.29-5.798 4.29-3.536 0-6.448-2.106-6.448-6.578 0-4.888 3.458-6.89 7.67-6.89 1.352 0 2.99.208 4.654.858l-1.898 4.628h-.39l-1.976-3.848c-.104-.234-.26-.338-.468-.338h-.182c-1.404 0-2.106 1.794-2.106 4.108zM126.86 23h-5.85l-3.302-6.37c-.052-.104-.13-.182-.208-.208v4.446c0 .286 0 .364.182.546l1.092 1.222V23h-7.566v-.364l1.092-1.222c.182-.182.182-.26.182-.546V7.594c0-.312 0-.39-.182-.598l-1.092-1.248v-.364L117.5 4.5v11.558l3.302-2.6c.234-.182.26-.416.078-.702l-1.378-2.236v-.364h6.942v.364l-4.29 3.276c-.13.104-.156.234-.078.364l3.484 6.708c.182.312.364.624.65.936l.65.832V23zm1.222-2.34c0-1.56 1.144-2.73 2.678-2.73 1.482 0 2.678 1.196 2.678 2.73s-1.196 2.678-2.678 2.678c-1.534 0-2.678-1.144-2.678-2.678zm8.58-14.612c0-1.56 1.17-2.548 2.6-2.548 1.43 0 2.548.988 2.548 2.548s-1.118 2.548-2.548 2.548-2.6-.988-2.6-2.548zm.078 14.82v-8.294c0-.312 0-.39-.182-.598l-1.092-1.456v-.364h6.292v10.712c0 .286 0 .364.182.546l1.092 1.222V23h-7.566v-.364l1.092-1.222c.182-.182.182-.26.182-.546zM150.286 5.58h.312v4.576h2.782v1.56h-2.782v7.436c0 1.274.598 1.508 1.3 1.508.598 0 1.04-.182 1.352-.676l.364.13c-.208 1.872-1.508 3.198-4.134 3.198-2.574 0-3.874-1.274-3.874-3.848v-7.748h-1.482v-1.56h.702c.39 0 .52-.052.91-.39l4.55-4.186z"/></g></svg>